<?xml version="1.0" standalone="no"?><!DOCTYPE svg PUBLIC "-//W3C//DTD SVG 1.1//EN" "http://www.w3.org/Graphics/SVG/1.1/DTD/svg11.dtd"><svg t="1663565815327" class="icon" viewBox="0 0 1024 1024" version="1.1" xmlns="http://www.w3.org/2000/svg" p-id="4546" xmlns:xlink="http://www.w3.org/1999/xlink" width="200" height="200"><path d="M149.333333 480h22.826667a341.418667 341.418667 0 0 1 307.84-307.84V149.333333a21.333333 21.333333 0 0 1 21.333333-21.333333h21.333334a21.333333 21.333333 0 0 1 21.333333 21.333333v22.826667a341.418667 341.418667 0 0 1 307.84 307.84h22.826667a21.333333 21.333333 0 0 1 21.333333 21.333333v21.333334a21.333333 21.333333 0 0 1-21.333333 21.333333h-22.826667a341.418667 341.418667 0 0 1-307.84 307.84v22.826667a21.333333 21.333333 0 0 1-21.333333 21.333333h-21.333334a21.333333 21.333333 0 0 1-21.333333-21.333333v-22.826667a341.418667 341.418667 0 0 1-307.84-307.84H149.333333a21.333333 21.333333 0 0 1-21.333333-21.333333v-21.333334a21.333333 21.333333 0 0 1 21.333333-21.333333z m330.666667-91.946667V366.08a149.546667 149.546667 0 0 0-113.92 113.877333h21.973333a128.213333 128.213333 0 0 0 0 64H366.08a149.546667 149.546667 0 0 0 113.877333 113.92v-21.930666a128.213333 128.213333 0 0 0 64 0v21.888a149.546667 149.546667 0 0 0 113.92-113.877334h-21.930666a128.213333 128.213333 0 0 0 0-64h21.888a149.546667 149.546667 0 0 0-113.877334-113.92v21.973334a128.213333 128.213333 0 0 0-64 0zM301.056 480a213.504 213.504 0 0 1 178.944-178.944V236.501333a277.461333 277.461333 0 0 0-243.498667 243.498667h64.554667z m242.944-178.944a213.461333 213.461333 0 0 1 178.944 178.944h64.554667a277.461333 277.461333 0 0 0-243.498667-243.498667v64.554667z m178.944 242.944a213.461333 213.461333 0 0 1-178.944 178.944v64.554667a277.461333 277.461333 0 0 0 243.498667-243.498667h-64.554667z m-242.944 178.944a213.461333 213.461333 0 0 1-178.944-178.944H236.501333a277.461333 277.461333 0 0 0 243.498667 243.498667v-64.554667z" p-id="4547" fill="#4E5969"></path></svg>