<?xml version="1.0" encoding="UTF-8"?>
<svg width="81px" height="32px" viewBox="0 0 81 32" version="1.1" xmlns="http://www.w3.org/2000/svg" xmlns:xlink="http://www.w3.org/1999/xlink">
    <title>logo_daohang@1x</title>
    <defs>
        <linearGradient x1="76.1262562%" y1="48.1065807%" x2="3.1851954%" y2="58.3433221%" id="linearGradient-1">
            <stop stop-color="#0A6BB4" offset="0%"></stop>
            <stop stop-color="#5AC2F7" offset="100%"></stop>
        </linearGradient>
        <linearGradient x1="12.6017545%" y1="46.8504923%" x2="75.0537934%" y2="57.5850815%" id="linearGradient-2">
            <stop stop-color="#0F6FB7" offset="0%"></stop>
            <stop stop-color="#5BC5FA" offset="100%"></stop>
        </linearGradient>
    </defs>
    <g id="页面-1" stroke="none" stroke-width="1" fill="none" fill-rule="evenodd">
        <g id="群组" transform="translate(-64.000000, -12.000000)">
            <g id="logo_daohang" transform="translate(64.000000, 12.000000)">
                <path d="M10.8937178,23.1578947 C12.1094731,24.5546191 13.2324372,25.6671148 14.1648386,26.5144995 L14.314353,26.6495924 C14.5360727,26.848755 14.7462046,27.032293 14.9433417,27.2004813 L15.0728258,27.3103358 C15.1153351,27.346198 15.1571873,27.3813052 15.1983669,27.4156605 L15.3198723,27.5164733 C15.3397818,27.5329004 15.3595192,27.5491404 15.3790827,27.5651934 L15.494361,27.6592725 C15.513221,27.6745797 15.5319032,27.6897007 15.5504057,27.704636 L15.6592483,27.7920221 L15.6592483,27.7920221 L15.7636847,27.8749689 L15.7636847,27.8749689 L15.8636222,27.9534945 L15.8636222,27.9534945 L15.9589681,28.027617 L15.9589681,28.027617 L16.0496299,28.0973544 L16.0496299,28.0973544 L16.1355148,28.162725 L16.1355148,28.162725 L16.2165302,28.2237469 L16.2165302,28.2237469 L16.3287204,28.3071654 L16.3287204,28.3071654 L16.429433,28.3809011 L16.429433,28.3809011 L16.5453221,28.464259 L16.5453221,28.464259 L16.5951749,28.4995687 L16.5951749,28.4995687 L16.6954627,28.5694118 L16.6954627,28.5694118 L16.7875648,28.6315789 L4.19689119,28.6315789 L5.78477909,27.3426757 L5.78477909,27.3426757 L7.27334518,26.1394589 L7.27334518,26.1394589 L8.25718759,25.3462523 L8.25718759,25.3462523 L8.77590413,24.9249362 L8.77590413,24.9249362 L9.20550567,24.5732149 L9.20550567,24.5732149 L9.55849702,24.2820923 L9.55849702,24.2820923 L9.90604591,23.9933438 L9.90604591,23.9933438 L10.2372135,23.7159656 L10.2372135,23.7159656 L10.5613397,23.4419726 L10.5613397,23.4419726 L10.8937178,23.1578947 Z" id="路径" fill="url(#linearGradient-1)"></path>
                <path d="M71.5745702,16.7927928 L71.6502923,16.7937951 L71.7318668,16.7957633 L71.8184224,16.7986596 L71.9090878,16.8024461 L72.002992,16.8070849 L72.0992635,16.8125381 L72.1970314,16.818768 C72.2297732,16.8209698 72.2626192,16.8232947 72.2954242,16.8257364 L72.3935708,16.8334057 L72.4906,16.8417379 L72.5856405,16.8506951 C72.6012664,16.852238 72.6167732,16.8538053 72.6321427,16.8553963 L72.7225667,16.8652201 L72.7662706,16.8703332 L72.4090152,18.6877511 L72.2702138,18.6617791 L72.2054729,18.6504241 L72.1626459,18.6435215 L72.1193772,18.637185 C72.1120952,18.6361776 72.1047694,18.635195 72.0973873,18.6342376 L72.0523167,18.6288021 L72.0052856,18.6240016 L71.9556864,18.619864 L71.9029115,18.6164167 C71.8938173,18.6159012 71.8845655,18.6154156 71.8751434,18.6149606 L71.8164661,18.6126006 C71.7961583,18.611939 71.7750682,18.611404 71.7530944,18.6110001 L71.6844208,18.6101866 L71.6479059,18.6100836 C71.172601,18.6100836 70.8762343,18.7554771 70.6581532,19.1435657 L70.6366023,19.1831871 C70.6153049,19.2236248 70.5947568,19.2665218 70.5748574,19.3119755 L70.5551705,19.3582851 L70.5358936,19.4063207 L70.5170044,19.456104 C70.5138873,19.4645481 70.5107854,19.4730659 70.5076982,19.4816578 L70.4893486,19.5341033 C70.4863187,19.5429937 70.4833025,19.5519592 70.4802997,19.5610003 L70.4624394,19.6161565 L70.4448773,19.6731468 L70.4275911,19.731993 L70.4105585,19.7927167 L70.3937569,19.8553394 L70.3771641,19.9198827 L70.3607577,19.9863684 L70.3445153,20.054818 L70.3284146,20.1252532 L70.3124331,20.1976955 L70.2965486,20.2721667 L71.8187672,20.2721667 L71.4770447,22.0585176 L69.9548261,22.0585176 L68.0631588,32 L65.6378123,32 L65.6486007,31.945047 L65.6677615,31.844614 L67.5317026,22.0585176 L66.3046081,22.0585176 L66.6463306,20.2721667 L67.8734252,20.2721667 L67.888958,20.1789658 C68.365661,17.2878733 69.8014595,16.8022313 71.487993,16.7927928 L71.5745702,16.7927928 Z M44.4660396,16 C45.3483164,16 46.3764995,16.1458469 47.1452937,16.3403094 L47.4206411,16.4153218 L46.8204876,19.2533541 C46.2434171,19.0456932 45.20469,18.7918854 44.1428801,18.7918854 C42.9425733,18.7918854 42.5963309,19.09184 42.5963309,19.8071165 C42.5963309,20.2455117 42.8040763,20.4531726 44.3737083,21.2376693 C45.6201808,21.860652 46.5434938,22.5297816 46.5434938,24.3064359 C46.5434938,28.0212587 44.1890457,28.8288288 41.1651958,28.8288288 C40.1755198,28.8288288 39.1504981,28.7051696 38.182913,28.4887661 L37.7720207,28.3904336 L38.3260085,25.2985936 C39.4109012,25.6908419 40.5188768,25.8985028 41.5114382,25.8985028 C42.5732481,25.8985028 43.0118217,25.5985482 43.0118217,24.8832718 C43.0118217,24.3064359 42.6886622,24.0295547 41.4191069,23.406572 C39.964889,22.6912956 39.1108245,22.0683129 39.1108245,20.4300992 C39.1108245,16.9229373 41.3960241,16 44.4660396,16 Z M75.978736,18.3063063 C75.8550574,18.8933194 75.7511675,19.4403657 75.6512352,19.9394518 L75.5767807,20.3046489 L77.0145438,20.3046489 L76.6744278,22.1000348 L75.2212049,22.1000348 C74.5809866,25.2885666 74.4885487,25.9324962 74.4798889,26.2705529 L74.4791337,26.3309006 C74.4791337,26.736814 74.6337319,26.8460983 75.1593657,26.8460983 C75.3332886,26.8460983 75.5159077,26.8285348 75.6680903,26.799994 L75.808678,26.7680381 L75.4376424,28.7351565 C75.0820666,28.7976047 74.5873524,28.8288288 74.2163168,28.8288288 C72.7940136,28.8288288 71.9282638,28.3448552 71.9282638,27.049055 C71.9282638,26.6407023 72.0878592,25.6023332 72.702211,22.4152235 L72.763094,22.1000348 L71.7582058,22.1000348 L72.1137816,20.3046489 L73.1341296,20.3046489 C73.2330724,19.8175529 73.3320152,19.29049 73.4467889,18.7314537 L73.5360848,18.3063063 L75.978736,18.3063063 Z M65.4276366,20.333627 L63.8085055,28.7567568 L61.3175345,28.7567568 L62.9366657,20.333627 L65.4276366,20.333627 Z M78.6454486,26.7027027 C79.2178854,26.7027027 79.4266988,27.0018018 79.4266988,27.4306306 C79.4266988,28.0900901 79.1350801,28.7207207 78.386232,28.7207207 C77.8281961,28.7207207 77.6049817,28.4036036 77.6049817,28.0108108 C77.6049817,27.427027 77.8497975,26.7027027 78.6454486,26.7027027 Z M80.5499711,26.7027027 C80.7119815,26.7027027 80.9027938,26.7315315 81,26.7675676 L81,26.7675676 L80.9279954,27.1099099 C80.8379896,27.0738739 80.6795794,27.0378378 80.517569,27.0378378 C80.2871542,27.0378378 80.1935482,27.1027027 80.1935482,27.2720721 C80.1935482,27.3693694 80.2331507,27.4162162 80.4635655,27.5423423 C80.7083813,27.6792793 80.8307891,27.7873874 80.8307891,28.0612613 C80.8307891,28.5477477 80.517569,28.7063063 80.0783407,28.7063063 C79.9055296,28.7063063 79.693116,28.6810811 79.5491067,28.6414414 L79.5491067,28.6414414 L79.6031102,28.2738739 C79.7615204,28.3243243 79.9415319,28.3567568 80.0963419,28.3567568 C80.3123558,28.3567568 80.4203627,28.2882883 80.4203627,28.1117117 C80.4203627,27.9927928 80.3699595,27.9387387 80.1611461,27.8198198 C79.9127301,27.6792793 79.786722,27.5855856 79.786722,27.3333333 C79.786722,26.8612613 80.1035424,26.7027027 80.5499711,26.7027027 Z M51.2549294,20.2522523 L51.2393924,26.0116116 L51.3326142,26.0116116 L53.9428237,20.2522523 L56.692866,20.2522523 L56.7860878,26.0116116 L56.8793095,26.0116116 L59.3962973,20.2522523 L62.0375808,20.2522523 L57.9824338,28.6126126 L54.7507458,28.6126126 L54.6885979,23.3022356 L54.5953761,23.3022356 L52.3269797,28.6126126 L49.0797547,28.6126126 L48.6447198,20.2522523 L51.2549294,20.2522523 Z M78.6094463,27.0486486 C78.1774185,27.0486486 78.04421,27.6072072 78.04421,27.9567568 C78.04421,28.172973 78.1198148,28.3711712 78.4078333,28.3711712 C78.807459,28.3711712 78.9874706,27.8774775 78.9874706,27.4702703 C78.9874706,27.2432432 78.9118657,27.0486486 78.6094463,27.0486486 Z M64.7114825,16.7927928 C65.7078709,16.7927928 65.9258308,16.9955718 65.9258308,17.6195074 C65.9258308,18.2122461 65.7545766,18.9609688 65.4899109,19.1793462 C65.271951,19.3665269 64.7893253,19.4133221 64.3066997,19.4133221 C63.4348599,19.4133221 63.1079199,19.2885349 63.1079199,18.6334026 C63.1079199,18.0718606 63.248037,17.3699332 63.5594084,17.0579654 C63.7773684,16.839588 64.2288569,16.7927928 64.7114825,16.7927928 Z" id="形状结合" fill="#FFFFFF" fill-rule="nonzero"></path>
                <path d="M0,0 L0.0470068447,0.0513871619 L0.142195465,0.154344585 L0.233114914,0.25180341 L0.345331041,0.371164918 C0.386221899,0.414492653 0.430566259,0.461306014 0.478268173,0.511440179 L0.631350638,0.671640262 C2.93999654,3.07760565 11.1399255,11.1840638 17.8658272,12.3383766 C20.0371799,12.5207798 22.8730024,12.6167252 25.7365399,12.6626398 L26.2573468,12.6704447 C26.6913707,12.6765029 27.125145,12.6814632 27.5564547,12.6854524 L28.0727017,12.6897813 C28.1584985,12.6904278 28.2441612,12.6910375 28.3296722,12.6916114 L28.8407756,12.694633 C29.010442,12.6955025 29.1793596,12.6962368 29.3473868,12.6968441 L29.8486554,12.698293 L30.3437308,12.6990287 L30.8317626,12.6990996 L31.5487429,12.698066 L32.0154446,12.6966879 L32.472126,12.6948155 L32.9179364,12.6924973 L33.3520255,12.6897819 L34.1816375,12.6833545 L34.5754595,12.6797397 L34.9541581,12.6759224 L35.3168829,12.6719513 L35.8291587,12.6658126 L36.5910337,12.6555015 L37.4423056,12.6421752 L37.9471195,12.6332059 L38.1917098,12.6284648 L38.1901484,12.6268779 C29.941241,16.3302316 22.6785694,21.8313206 16.9036405,28.6298653 L16.9056723,28.6315789 L16.8596312,28.5992681 C16.8497761,28.5922865 16.8388423,28.5845043 16.8268481,28.5759178 L16.7423024,28.5147167 C15.2067782,27.3919354 4.4286776,18.9431546 0,0 Z" id="路径" fill="url(#linearGradient-2)"></path>
            </g>
        </g>
    </g>
</svg>