<?xml version="1.0" standalone="no"?><!DOCTYPE svg PUBLIC "-//W3C//DTD SVG 1.1//EN" "http://www.w3.org/Graphics/SVG/1.1/DTD/svg11.dtd"><svg class="icon" width="200px" height="200.00px" viewBox="0 0 1024 1024" version="1.1" xmlns="http://www.w3.org/2000/svg"><path fill="#108CEE" d="M928.7 335c-19.9-10.7-43.9-9.7-62.7 2.6l-121.9 74.6v-39.7c0-58.9-47.9-106.8-106.8-106.8H171.5c-58.9 0-106.8 47.9-106.8 106.8v372.4c0 58.9 47.9 106.8 106.8 106.8h383.2c104.5 0 189.5-85 189.5-189.5v-53.8c0-20.2-8.5-38-24.5-51.4-0.1-0.1-0.2-0.2-0.4-0.3-19.5-16.1-45.2-21.9-61.2-21.9-13.3 0-24 10.7-24 24s10.7 24 24 24c7.3 0 21.6 3.4 30.6 10.8 6.6 5.5 7.4 10.8 7.4 14.7v53.8c0 78-63.5 141.5-141.5 141.5H171.5c-32.4 0-58.8-26.4-58.8-58.8V372.5c0-32.4 26.4-58.8 58.8-58.8h465.9c32.4 0 58.8 26.4 58.8 58.8V455c0 8.7 4.7 16.7 12.3 20.9 7.6 4.2 16.9 4.1 24.3-0.5l158.7-97.1c0.2-0.1 0.5-0.3 0.7-0.5 6.1-4 11.8-1.8 13.9-0.6 2.1 1.1 6.9 4.5 6.9 11.5v339.8c0 7-4.8 10.3-6.9 11.5-2.2 1.2-7.8 3.4-13.9-0.6l-65.3-43.3c-21.7-15-30.1-41.6-25.6-58.7 2.9-11 9.6-13 15.1-13.5 13.2-1.2 23-12.8 21.8-26-1.2-13.2-12.8-23-26-21.8-28.5 2.5-49.9 20.8-57.3 49.1-10.3 39.1 8.7 85.6 45 110.6 0.1 0.1 0.2 0.2 0.3 0.2 37.5 24.8 65.4 43.3 65.5 43.4 18.9 12.5 43.1 13.6 63.1 2.9 19.9-10.7 32.2-31.3 32.2-53.7V388.7c-0.1-22.5-12.4-43.1-32.3-53.7z"  /><path fill="#108CEE" d="M210.4 391.8c-11.5 0-20.9 9.3-20.9 20.9 0 11.5 9.3 20.9 20.9 20.9H273c11.5 0 20.9-9.3 20.9-20.9 0-11.5-9.3-20.9-20.9-20.9h-62.6z"  /></svg>